<?xml version="1.0" encoding="utf-8"?>
<!-- Generator: Adobe Illustrator 25.3.0, SVG Export Plug-In . SVG Version: 6.00 Build 0)  -->
<svg version="1.1" id="Calque_1" xmlns="http://www.w3.org/2000/svg" xmlns:xlink="http://www.w3.org/1999/xlink" x="0px" y="0px"
	 viewBox="0 0 1600 1000" style="enable-background:new 0 0 1600 1000;" xml:space="preserve">
<style type="text/css">
	.st0{fill:#139DAC;}
	.st1{fill:#003F3B;}
</style>
<g>
	<g>
		<path class="st0" d="M1324.32,86h-60.01c-1.42,0-2.56,1.19-2.56,2.65v140.32c0,1.47,1.15,2.65,2.56,2.65h60.01
			c1.42,0,2.56-1.19,2.56-2.65V88.65C1326.89,87.19,1325.74,86,1324.32,86z"/>
		<path class="st0" d="M1457.17,136.7h-62.58c-1.42,0-2.56,1.15-2.56,2.56v228.13c0,10.11-8.19,18.3-18.3,18.3h-44.27
			c-1.42,0-2.56-1.15-2.56-2.56V281.31c0-1.42-1.15-2.56-2.56-2.56h-60.01c-1.42,0-2.56,1.15-2.56,2.56v101.82
			c0,1.42-1.15,2.56-2.56,2.56h-44.27c-10.11,0-18.3-8.19-18.3-18.3V139.27c0-1.42-1.15-2.56-2.56-2.56h-62.58v263.8
			c0,31.42,25.47,56.9,56.9,56.9h206.9c34.19,0,61.91-27.72,61.91-61.91V136.7z"/>
	</g>
	<g>
		<path class="st1" d="M197.01,410.11c0.85,15.6,5.43,27.99,13.76,37.18c8.32,9.19,19.27,13.79,32.82,13.79
			c9.03,0,17.01-2.02,23.93-6.06c6.92-4.03,11.36-9.67,13.34-16.92h56.75c-6.5,21.17-17.79,37.46-33.88,48.88
			c-16.09,11.42-35.3,17.13-57.6,17.13c-69.46,0-104.18-37.32-104.18-111.97c0-15.88,2.26-30.22,6.78-43.03
			c4.51-12.81,11.08-23.81,19.69-33.01c8.61-9.19,19.12-16.22,31.55-21.1c12.42-4.87,26.68-7.31,42.77-7.31
			c32.19,0,56.54,10.17,73.05,30.5c16.52,20.33,24.78,50.97,24.78,91.91H197.01z M283.83,375.85c-0.29-7.52-1.63-14.13-4.02-19.84
			c-2.4-5.71-5.58-10.45-9.53-14.21c-3.96-3.76-8.47-6.54-13.55-8.35c-5.08-1.81-10.31-2.72-15.67-2.72
			c-11.01,0-20.54,3.97-28.59,11.91c-8.05,7.94-12.64,19.01-13.76,33.21H283.83z"/>
		<path class="st1" d="M408.46,498.68l-74.54-205.55h61.41l43.62,135.78l44.04-135.78h58.02l-74.96,205.55H408.46z"/>
		<path class="st1" d="M671.92,498.68c-1.7-5.29-2.83-11.42-3.39-18.38c-6.5,7.25-15.11,13.02-25.83,17.34
			c-10.73,4.32-23.15,6.48-37.27,6.48c-24,0-41.58-5.22-52.72-15.67c-11.16-10.44-16.73-24.02-16.73-40.73
			c0-14.76,2.4-26.53,7.2-35.3c4.8-8.77,11.43-15.67,19.9-20.68s18.56-8.7,30.28-11.07c11.71-2.36,24.49-4.53,38.33-6.48
			c13.83-1.95,23.15-4.53,27.95-7.73c4.8-3.2,7.2-8.42,7.2-15.67c0-6.69-3.18-11.91-9.53-15.67c-6.35-3.76-14.9-5.64-25.62-5.64
			c-12.71,0-21.81,2.79-27.32,8.36c-5.5,5.58-8.96,12.95-10.38,22.14h-51.24c0.28-10.58,2.05-20.33,5.29-29.24
			c3.24-8.91,8.47-16.57,15.67-22.98c7.2-6.41,16.58-11.35,28.16-14.83c11.57-3.48,25.69-5.22,42.35-5.22
			c16.37,0,30.28,1.81,41.71,5.43c11.44,3.62,20.61,8.85,27.53,15.67c6.92,6.83,11.92,15.32,15.03,25.48
			c3.1,10.17,4.66,21.66,4.66,34.47v129.93H671.92z M668.1,397.99c-2.83,2.79-6.92,5.01-12.28,6.68
			c-5.37,1.67-13.13,3.49-23.29,5.43c-15.81,3.07-26.68,6.96-32.61,11.7c-5.93,4.74-8.89,11.56-8.89,20.47
			c0,15.32,8.89,22.98,26.68,22.98c7.05,0,13.62-1.18,19.69-3.55c6.07-2.36,11.29-5.57,15.67-9.61c4.37-4.03,7.9-8.77,10.59-14.2
			c2.68-5.43,4.02-11.21,4.02-17.34L668.1,397.99z"/>
		<path class="st1" d="M881.2,498.68v-124.5c0-15.88-2.69-26.6-8.05-32.17c-5.37-5.57-14.54-8.36-27.53-8.36
			c-28.52,0-42.77,15.74-42.77,47.21v117.81H747.8V293.13h52.51v30.08c6.49-11.7,15.1-20.54,25.83-26.53
			c10.73-5.99,24.56-8.98,41.5-8.98c9.88,0,19.06,1.46,27.53,4.39s15.74,7.31,21.81,13.16c6.07,5.85,10.87,13.02,14.4,21.52
			c3.53,8.5,5.29,18.32,5.29,29.45v142.46H881.2z"/>
		<path class="st1" d="M280.01,817.19V689.77c0-15.59-2.75-26.25-8.26-31.96c-5.5-5.7-14.61-8.56-27.32-8.56
			c-6.78,0-12.85,1.32-18.21,3.97c-5.37,2.65-9.89,6.27-13.55,10.86c-3.67,4.6-6.42,9.89-8.26,15.88
			c-1.84,5.99-2.75,12.47-2.75,19.43v117.81h-55.05V536.45h55.05v101.94c1.97-4.45,5.01-8.7,9.1-12.74
			c4.09-4.03,8.82-7.45,14.19-10.24c5.36-2.78,11.29-5.01,17.79-6.68c6.49-1.67,13.27-2.51,20.33-2.51
			c21.45,0,38.89,5.78,52.3,17.34c13.41,11.56,20.12,27.64,20.12,48.25v145.39H280.01z"/>
		<path class="st1" d="M464.06,822.63c-16.94,0-32.05-2.65-45.31-7.94c-13.27-5.29-24.5-12.67-33.67-22.14
			c-9.18-9.46-16.17-20.89-20.96-34.26c-4.8-13.37-7.2-27.99-7.2-43.87c0-16.15,2.47-30.92,7.41-44.29
			c4.94-13.37,12.07-24.78,21.39-34.26c9.32-9.46,20.54-16.78,33.67-21.93c13.13-5.15,28.02-7.73,44.68-7.73
			c16.37,0,31.05,2.58,44.05,7.73c12.98,5.16,24.07,12.4,33.24,21.73c9.17,9.33,16.23,20.68,21.18,34.05
			c4.93,13.37,7.41,28.27,7.41,44.7c0,16.44-2.48,31.27-7.41,44.49c-4.94,13.23-12,24.59-21.18,34.05
			c-9.18,9.47-20.33,16.78-33.46,21.93C494.77,820.05,480.16,822.63,464.06,822.63z M464.06,777.09c33.6,0,50.4-20.89,50.4-62.67
			c0-41.5-16.8-62.25-50.4-62.25c-33.6,0-50.39,20.75-50.39,62.25C413.67,756.2,430.46,777.09,464.06,777.09z"/>
		<path class="st1" d="M593.06,587v-50.55h55.05V587H593.06z M593.06,817.19V611.65h55.05v205.55H593.06z"/>
		<path class="st1" d="M667.76,817.19v-41.78l106.3-120.74h-99.1v-43.03h169.4v43.87l-106.3,117.4h109.26v44.29H667.76z"/>
		<path class="st1" d="M911.56,728.63c0.85,15.6,5.43,27.99,13.76,37.18c8.32,9.19,19.27,13.79,32.82,13.79
			c9.03,0,17.01-2.02,23.93-6.06c6.92-4.03,11.36-9.67,13.34-16.92h56.75c-6.5,21.17-17.79,37.46-33.88,48.88
			c-16.09,11.42-35.3,17.13-57.6,17.13c-69.46,0-104.18-37.32-104.18-111.97c0-15.88,2.26-30.22,6.78-43.03
			c4.51-12.81,11.08-23.81,19.69-33.01c8.61-9.19,19.12-16.22,31.55-21.1c12.42-4.87,26.68-7.31,42.77-7.31
			c32.19,0,56.54,10.17,73.05,30.5c16.52,20.33,24.78,50.97,24.78,91.91H911.56z M998.38,694.37c-0.29-7.52-1.63-14.13-4.02-19.84
			c-2.4-5.71-5.58-10.45-9.53-14.21c-3.96-3.76-8.47-6.54-13.55-8.35c-5.08-1.81-10.31-2.72-15.67-2.72
			c-11.01,0-20.54,3.97-28.59,11.91c-8.05,7.94-12.64,19.01-13.76,33.21H998.38z"/>
		<path class="st1" d="M1207.33,790.04c-3.96,9.19-11.08,16.36-21.39,21.52c-10.31,5.16-21.96,7.73-34.94,7.73
			c-11.01,0-21.17-1.74-30.49-5.22c-9.32-3.48-17.36-8.49-24.14-15.04c-6.78-6.54-12.07-14.34-15.88-23.4
			c-3.81-9.05-5.72-19.28-5.72-30.71V611.65h55.05v125.33c0,25.63,11.71,38.44,35.15,38.44c12.71,0,22.93-3.62,30.7-10.86
			c7.76-7.24,11.65-16.43,11.65-27.57V611.65h55.05v210.98c0,14.48-2.47,27.43-7.41,38.85c-4.94,11.42-11.72,21.02-20.33,28.83
			c-8.62,7.79-18.78,13.79-30.49,17.97c-11.72,4.18-24.21,6.27-37.48,6.27c-30.78,0-53.78-7.66-69.03-22.98
			c-15.25-15.32-22.87-36.35-22.87-63.08h51.24c0,12.25,3.6,21.86,10.8,28.83c7.2,6.96,18,10.44,32.4,10.44
			c5.08,0,9.88-1.04,14.4-3.13c4.51-2.09,8.54-5.01,12.07-8.77c3.53-3.76,6.35-8.43,8.47-14c2.12-5.58,3.17-11.7,3.17-18.38V790.04z
			"/>
	</g>
</g>
</svg>
